{
  "accessors": [
    {
      "bufferView": 2,
      "componentType": 5126,
      "count": 539,
      "max": [
        -2.2686989307403564,
        4.411538124084473,
        5.7560648918151855
      ],
      "min": [
        -9.624176025390625,
        -2.36006498336792,
        -0.2304220050573349
      ],
      "type": "VEC3"
    },
    {
      "bufferView": 2,
      "byteOffset": 6468,
      "componentType": 5126,
      "count": 539,
      "max": [
        0.9914475083351135,
        1.0,
        0.9999988079071045
      ],
      "min": [
        -1.0,
        -0.9743705987930298,
        -0.3017004728317261
      ],
      "type": "VEC3"
    },
    {
      "bufferView": 1,
      "componentType": 5126,
      "count": 539,
      "max": [
        1.000599980354309,
        1.0180000066757202
      ],
      "min": [
        0.0020000000949949026,
        0.0
      ],
      "type": "VEC2"
    },
    {
      "bufferView": 0,
      "componentType": 5125,
      "count": 2148,
      "type": "SCALAR"
    },
    {
      "bufferView": 2,
      "byteOffset": 12936,
      "componentType": 5126,
      "count": 712,
      "max": [
        6.06754207611084,
        -3.215604066848755,
        6.134562015533447
      ],
      "min": [
        2.8251030445098877,
        -6.299421787261963,
        -0.0163589995354414
      ],
      "type": "VEC3"
    },
    {
      "bufferView": 2,
      "byteOffset": 21480,
      "componentType": 5126,
      "count": 712,
      "max": [
        0.9397000074386597,
        0.9848158359527588,
        0.9982544183731079
      ],
      "min": [
        -1.0,
        -1.0,
        0.0
      ],
      "type": "VEC3"
    },
    {
      "bufferView": 1,
      "byteOffset": 4312,
      "componentType": 5126,
      "count": 712,
      "max": [
        0.8579000234603882,
        0.9423999786376953
      ],
      "min": [
        0.041200000792741776,
        0.0026000000070780516
      ],
      "type": "VEC2"
    },
    {
      "bufferView": 0,
      "byteOffset": 8592,
      "componentType": 5125,
      "count": 2580,
      "type": "SCALAR"
    },
    {
      "bufferView": 2,
      "byteOffset": 30024,
      "componentType": 5126,
      "count": 253,
      "max": [
        7.0799641609191895,
        5.928398132324219,
        5.154911994934082
      ],
      "min": [
        3.7843880653381348,
        2.581273078918457,
        -0.05198799818754196
      ],
      "type": "VEC3"
    },
    {
      "bufferView": 2,
      "byteOffset": 33060,
      "componentType": 5126,
      "count": 253,
      "max": [
        1.0,
        1.0,
        1.0
      ],
      "min": [
        -0.9461079835891724,
        -1.0,
        -0.0
      ],
      "type": "VEC3"
    },
    {
      "bufferView": 1,
      "byteOffset": 10008,
      "componentType": 5126,
      "count": 253,
      "max": [
        0.8935999870300293,
        1.0351999998092651
      ],
      "min": [
        0.012299999594688416,
        0.03290000185370445
      ],
      "type": "VEC2"
    },
    {
      "bufferView": 0,
      "byteOffset": 18912,
      "componentType": 5125,
      "count": 906,
      "type": "SCALAR"
    }
  ],
  "asset": {
    "extras": {
      "author": "LadyIReyna (https://sketchfab.com/LadyIReyna)",
      "license": "CC-BY-NC-4.0 (http://creativecommons.org/licenses/by-nc/4.0/)",
      "source": "https://sketchfab.com/3d-models/dock-brookmint-valerian-three-medicinal-plants-4644464eb84d4c55a588a01a37413800",
      "title": "Dock, brookmint, valerian three medicinal plants"
    },
    "generator": "Sketchfab-12.65.0",
    "version": "2.0"
  },
  "bufferViews": [
    {
      "buffer": 0,
      "byteLength": 22536,
      "name": "floatBufferViews",
      "target": 34963
    },
    {
      "buffer": 0,
      "byteLength": 12032,
      "byteOffset": 22536,
      "byteStride": 8,
      "name": "floatBufferViews",
      "target": 34962
    },
    {
      "buffer": 0,
      "byteLength": 36096,
      "byteOffset": 34568,
      "byteStride": 12,
      "name": "floatBufferViews",
      "target": 34962
    }
  ],
  "buffers": [
    {
      "byteLength": 70664,
      "uri": "plant.bin"
    }
  ],
  "images": [
    {
      "uri": "textures/Ampfer_pflanze_baseColor.png"
    },
    {
      "uri": "textures/Bachminze_baseColor.png"
    },
    {
      "uri": "textures/Baldrian_baseColor.png"
    }
  ],
  "materials": [
    {
      "alphaMode": "BLEND",
      "doubleSided": true,
      "name": "Ampfer_pflanze",
      "pbrMetallicRoughness": {
        "baseColorTexture": {
          "index": 0
        },
        "metallicFactor": 0.0,
        "roughnessFactor": 0.8501961483
      }
    },
    {
      "alphaMode": "BLEND",
      "doubleSided": true,
      "name": "Bachminze",
      "pbrMetallicRoughness": {
        "baseColorTexture": {
          "index": 1
        },
        "metallicFactor": 0.0,
        "roughnessFactor": 0.8501961483
      }
    },
    {
      "alphaMode": "BLEND",
      "doubleSided": true,
      "name": "Baldrian",
      "pbrMetallicRoughness": {
        "baseColorTexture": {
          "index": 2
        },
        "metallicFactor": 0.0,
        "roughnessFactor": 0.8501961483
      }
    }
  ],
  "meshes": [
    {
      "name": "Object_0",
      "primitives": [
        {
          "attributes": {
            "NORMAL": 1,
            "POSITION": 0,
            "TEXCOORD_0": 2
          },
          "indices": 3,
          "material": 0,
          "mode": 4
        }
      ]
    },
    {
      "name": "Object_1",
      "primitives": [
        {
          "attributes": {
            "NORMAL": 5,
            "POSITION": 4,
            "TEXCOORD_0": 6
          },
          "indices": 7,
          "material": 1,
          "mode": 4
        }
      ]
    },
    {
      "name": "Object_2",
      "primitives": [
        {
          "attributes": {
            "NORMAL": 9,
            "POSITION": 8,
            "TEXCOORD_0": 10
          },
          "indices": 11,
          "material": 2,
          "mode": 4
        }
      ]
    }
  ],
  "nodes": [
    {
      "children": [
        1
      ],
      "matrix": [
        1.0,
        0.0,
        0.0,
        0.0,
        0.0,
        2.220446049250313e-16,
        -1.0,
        0.0,
        0.0,
        1.0,
        2.220446049250313e-16,
        0.0,
        0.0,
        0.0,
        0.0,
        1.0
      ],
      "name": "Sketchfab_model"
    },
    {
      "children": [
        2,
        3,
        4
      ],
      "name": "AmpferBachminzeBaldrian.obj.cleaner.materialmerger.gles"
    },
    {
      "mesh": 0,
      "name": "Object_2"
    },
    {
      "mesh": 1,
      "name": "Object_3"
    },
    {
      "mesh": 2,
      "name": "Object_4"
    }
  ],
  "samplers": [
    {
      "magFilter": 9729,
      "minFilter": 9987,
      "wrapS": 10497,
      "wrapT": 10497
    }
  ],
  "scene": 0,
  "scenes": [
    {
      "name": "Sketchfab_Scene",
      "nodes": [
        0
      ]
    }
  ],
  "textures": [
    {
      "sampler": 0,
      "source": 0
    },
    {
      "sampler": 0,
      "source": 1
    },
    {
      "sampler": 0,
      "source": 2
    }
  ]
}
